# xmcd
#
# Track frame offsets:
#	182
#	18085
#	28555
#	42325
#	54652
#	71082
#	79255
#	91767
#	105397
#	119637
#	134902
#	147250
#	156470
#	171935
#	186070
#	198177
#	210375
#	222587
#	236025
#	249370
#	260417
#	275872
#	288752
#	302227
#
# Disc length: 4220 seconds
#
# Revision: 1
# Processed by: cddbd v1.4PL0 Copyright (c) Steve Scherf et al.
# Submitted via: audiograbber 1.80
#
DISCID=6b107a18
DTITLE=Jimmy Roy's 5 Star Hillbillies - 5 Star Hop
DYEAR=1900
DGENRE=
TTITLE0=Midnight Ride
TTITLE1=My Baby's Just Like Money
TTITLE2=Railroad Bridge
TTITLE3=Rock That Rock
TTITLE4=It's Cold Outside
TTITLE5=Jimmy's 5 Star Hop
TTITLE6=I'm Not Stupid
TTITLE7=Go Boy Go
TTITLE8=Careless
TTITLE9=Start All Over
TTITLE10=Mourning All Night
TTITLE11=Pierre's Boogie
TTITLE12=Golden Chains
TTITLE13=Wore To A Frazzel
TTITLE14=Cadillac In A Model 'A'
TTITLE15=Cried In My Sleep
TTITLE16=Uh Babe
TTITLE17=Lotta Money
TTITLE18=Misery
TTITLE19=Oakie Boogie
TTITLE20=Trademark - Slow
TTITLE21=Trademark - Fast
TTITLE22=Talking In Your Sleep
TTITLE23=Hangman
EXTD=
EXTT0=
EXTT1=
EXTT2=
EXTT3=
EXTT4=
EXTT5=
EXTT6=
EXTT7=
EXTT8=
EXTT9=
EXTT10=
EXTT11=
EXTT12=
EXTT13=
EXTT14=
EXTT15=
EXTT16=
EXTT17=
EXTT18=
EXTT19=
EXTT20=
EXTT21=
EXTT22=
EXTT23=
PLAYORDER=
